<?xml version="1.0" standalone="no"?>
<!DOCTYPE svg PUBLIC "-//W3C//DTD SVG 20010904//EN"
 "http://www.w3.org/TR/2001/REC-SVG-20010904/DTD/svg10.dtd">
<svg version="1.0" xmlns="http://www.w3.org/2000/svg"
 width="1614.000000pt" height="1664.000000pt" viewBox="0 0 1614.000000 1664.000000"
 preserveAspectRatio="xMidYMid meet">

<g transform="translate(0.000000,1664.000000) scale(0.100000,-0.100000)"
fill="#000000" stroke="none">
<path d="M8150 15053 c-362 -18 -703 -44 -895 -69 -612 -76 -1313 -273 -1750
-491 -297 -149 -455 -253 -775 -512 -321 -259 -384 -322 -463 -457 -20 -33
-68 -101 -107 -150 -41 -52 -91 -131 -120 -191 -43 -86 -55 -104 -87 -120 -53
-26 -71 -65 -99 -215 -26 -141 -116 -479 -164 -613 -15 -44 -44 -123 -63 -176
-44 -120 -101 -404 -122 -609 -8 -85 -31 -225 -50 -310 -39 -175 -80 -420
-125 -750 -42 -301 -87 -494 -149 -635 -133 -299 -203 -450 -223 -478 -43 -63
-283 -364 -364 -458 -174 -200 -360 -440 -458 -589 -192 -291 -226 -361 -226
-471 0 -143 42 -197 220 -281 112 -54 135 -61 215 -68 109 -10 215 -45 321
-106 43 -25 106 -59 138 -76 77 -39 374 -152 485 -184 129 -37 520 -100 741
-119 107 -9 251 -22 320 -30 340 -38 525 -47 918 -46 l392 1 0 -27 c0 -56 32
-88 147 -145 442 -221 479 -242 683 -390 25 -18 90 -63 145 -101 l99 -67 52
-258 c74 -371 125 -545 196 -670 71 -125 220 -245 400 -324 177 -77 303 -128
318 -128 8 0 62 -12 120 -26 125 -30 305 -54 410 -54 179 0 418 50 564 118 92
44 294 157 364 205 151 102 476 434 578 589 148 225 270 515 293 694 5 44 12
86 15 94 11 30 56 356 56 407 0 42 5 57 24 75 13 13 41 50 63 83 105 156 286
274 421 275 140 0 177 -55 217 -324 13 -92 32 -183 41 -203 18 -37 109 -105
158 -117 22 -5 24 -12 31 -93 29 -364 165 -672 400 -908 318 -320 741 -436
1214 -334 121 27 210 58 335 120 l99 49 -6 -113 c-4 -61 -10 -129 -13 -149
l-7 -38 -243 0 c-258 0 -377 -11 -610 -55 -325 -62 -513 -176 -490 -299 16
-83 111 -112 182 -55 89 72 235 119 495 160 119 19 186 23 384 24 155 0 239
-4 238 -10 0 -5 -6 -53 -12 -105 -10 -82 -31 -209 -37 -218 -1 -1 -42 6 -91
17 -241 54 -403 75 -583 75 -150 0 -182 -3 -225 -20 -98 -38 -124 -135 -54
-197 28 -26 36 -28 78 -23 25 4 105 9 176 12 114 5 152 2 315 -25 102 -16 227
-40 278 -51 l92 -22 0 -156 c0 -191 -11 -260 -57 -377 -110 -279 -198 -376
-400 -449 -99 -35 -160 -67 -212 -112 -108 -94 -131 -176 -67 -240 24 -24 43
-34 65 -34 44 0 86 24 108 60 25 43 79 77 181 114 133 49 218 100 303 185 99
99 137 159 209 337 79 195 89 252 99 595 9 273 18 370 58 567 13 66 16 72 36
68 171 -35 172 -36 189 -67 21 -36 79 -63 118 -54 34 7 76 51 85 88 18 71 -29
148 -115 192 -26 13 -94 34 -151 45 -57 12 -105 23 -107 24 -1 2 2 46 9 97 13
106 8 205 -12 236 -7 12 -27 30 -46 40 l-32 19 71 54 c151 115 331 319 437
495 96 159 199 411 230 566 l12 55 83 -4 c99 -5 145 8 181 49 48 58 23 144
-55 184 -15 8 -51 34 -80 59 -29 25 -62 46 -74 48 -19 3 -22 11 -28 110 -42
625 -438 1123 -1002 1259 -116 27 -284 41 -391 31 -49 -5 -91 -8 -93 -7 -4 3
218 131 296 169 40 20 124 56 186 80 142 55 194 82 293 150 132 90 202 130
318 182 62 27 173 90 255 145 182 120 264 203 324 328 37 77 41 94 43 166 2
130 -20 172 -96 182 -38 5 -48 14 -156 147 -193 235 -340 395 -555 602 -255
245 -510 462 -682 580 -56 39 -138 120 -323 320 -474 512 -517 588 -550 972
-21 243 -47 398 -101 592 -97 357 -116 401 -257 624 -53 82 -57 93 -57 148 0
33 -7 72 -15 88 -15 29 -60 60 -87 60 -7 0 -24 29 -36 65 -28 77 -85 168 -150
237 -43 46 -319 277 -445 372 -167 125 -587 262 -1107 360 -476 90 -1037 132
-1470 109z m585 -233 c573 -34 1077 -122 1514 -266 189 -62 319 -128 416 -209
44 -37 133 -110 198 -162 130 -106 188 -166 222 -233 42 -83 41 -99 -8 -167
-63 -85 -160 -186 -228 -237 -32 -24 -127 -81 -211 -127 -84 -45 -193 -107
-242 -137 -119 -73 -195 -105 -505 -206 -187 -61 -332 -101 -513 -141 -139
-31 -318 -71 -398 -90 -295 -70 -909 -157 -1335 -189 -265 -20 -1438 -66
-1689 -66 -220 0 -412 19 -616 61 -80 17 -233 46 -340 65 -317 56 -457 94
-553 152 -45 27 -119 64 -164 83 -45 19 -83 37 -83 42 0 23 96 193 139 245 27
33 80 106 116 162 81 125 120 163 398 388 262 212 343 271 507 368 267 159
496 257 855 368 573 176 918 236 1620 281 414 26 643 30 900 15z m2617 -1365
c92 -142 108 -184 202 -525 54 -197 81 -348 96 -530 5 -74 18 -180 27 -234
l17 -100 -65 -59 c-54 -50 -99 -77 -288 -169 -123 -60 -252 -127 -287 -149
-35 -21 -100 -57 -144 -79 -44 -22 -126 -68 -182 -102 -57 -34 -195 -106 -308
-160 -113 -55 -288 -141 -390 -192 -199 -99 -281 -135 -575 -249 -105 -41
-271 -110 -370 -154 -202 -90 -418 -168 -670 -243 -424 -127 -712 -180 -1070
-200 -110 -6 -301 -20 -425 -31 -278 -24 -671 -25 -1295 -4 -539 18 -582 20
-925 51 -330 29 -387 37 -544 75 -67 17 -183 43 -258 59 -170 35 -308 96 -308
135 0 38 48 306 85 475 35 160 47 243 65 440 18 188 64 386 130 555 60 154
158 489 185 630 9 44 19 83 23 87 11 11 163 -55 255 -112 131 -80 234 -109
597 -170 102 -17 234 -42 293 -56 146 -33 330 -61 501 -75 112 -9 238 -8 621
5 1175 40 1358 51 1880 117 529 66 520 64 1120 203 315 73 426 104 682 187
257 84 340 119 469 197 55 32 164 94 244 137 80 43 172 97 205 121 78 54 198
166 254 237 l44 55 32 -51 c17 -29 52 -83 77 -122z m471 -1672 c50 -82 191
-248 393 -465 96 -103 174 -188 174 -190 0 -2 -28 -33 -63 -69 -37 -39 -104
-92 -167 -133 -100 -63 -167 -111 -406 -291 -198 -150 -369 -288 -474 -384
-151 -139 -175 -157 -375 -276 -234 -140 -560 -305 -755 -382 -85 -34 -210
-84 -278 -112 -68 -28 -218 -78 -333 -111 -115 -34 -257 -79 -316 -101 -288
-109 -380 -134 -728 -203 -325 -64 -319 -63 -650 -92 -527 -46 -961 -40 -1765
22 -326 25 -719 89 -935 152 -55 16 -170 50 -255 75 -85 25 -229 61 -320 81
-205 45 -471 119 -570 158 -41 16 -140 64 -220 105 -80 42 -185 97 -235 123
-49 26 -97 49 -105 52 -12 4 -11 16 7 79 38 133 103 456 103 514 0 3 17 -3 37
-13 60 -30 158 -59 293 -88 69 -14 188 -41 265 -60 198 -49 632 -96 1050 -114
802 -34 1467 -37 1790 -7 94 9 258 21 365 27 349 20 667 79 1117 210 284 82
458 144 687 247 94 41 261 111 371 153 269 104 388 156 579 252 88 44 250 123
359 174 108 51 268 133 355 182 331 188 383 216 578 311 191 93 347 184 374
216 7 8 14 15 15 15 1 0 18 -26 38 -57z m836 -890 c36 -25 109 -83 161 -128
52 -45 129 -109 170 -142 122 -99 468 -439 608 -596 72 -80 185 -214 252 -297
67 -83 128 -154 136 -157 54 -20 -50 -155 -196 -253 -47 -31 -106 -71 -132
-89 -26 -18 -94 -52 -150 -77 -128 -56 -188 -89 -305 -170 -111 -76 -154 -99
-318 -164 -155 -62 -224 -96 -400 -200 -188 -111 -222 -127 -365 -176 -341
-116 -608 -214 -830 -303 -701 -283 -749 -299 -1445 -486 -198 -53 -466 -128
-595 -167 -764 -230 -830 -244 -1390 -297 -173 -16 -376 -35 -450 -41 -74 -6
-270 -24 -435 -40 -458 -45 -569 -50 -923 -39 -175 5 -513 9 -752 8 -440 -2
-562 4 -945 46 -71 8 -215 21 -320 30 -245 20 -534 65 -681 105 -131 36 -431
158 -550 224 -142 79 -332 146 -414 146 -53 0 -83 11 -230 83 -14 7 -26 23
-28 35 -13 88 286 517 684 983 44 52 138 168 209 259 129 166 164 227 288 502
l26 58 128 -71 c183 -102 374 -196 474 -235 129 -50 370 -117 589 -164 107
-23 290 -70 406 -105 520 -156 813 -197 1749 -246 482 -25 686 -22 1154 16
345 28 443 42 787 116 271 57 346 78 591 164 100 35 273 92 385 125 354 107
832 307 1188 498 132 70 390 226 461 278 35 26 113 93 174 149 129 119 289
249 403 330 45 31 117 86 159 121 43 36 161 120 263 188 102 68 214 147 250
175 36 27 71 50 79 51 7 0 43 -21 80 -47z m-829 -2797 c0 -2 -26 -23 -57 -47
-32 -24 -100 -84 -152 -134 -252 -243 -440 -568 -516 -896 -15 -63 -30 -127
-34 -144 l-8 -30 -6 35 c-3 19 -12 76 -20 125 -17 107 -62 220 -115 290 -29
38 -56 59 -116 90 -78 40 -80 40 -190 40 -90 0 -123 -5 -176 -23 -81 -29 -183
-92 -278 -171 -46 -39 -74 -57 -77 -49 -2 7 -12 56 -21 108 -9 52 -23 113 -31
134 -7 22 -12 40 -11 42 2 1 89 25 193 53 105 27 240 65 300 84 134 42 650
239 870 332 140 59 416 163 438 164 4 1 7 -1 7 -3z m-4863 -1223 c-2 -5 -22
-39 -45 -78 -55 -95 -98 -212 -121 -323 -10 -51 -21 -96 -25 -99 -3 -3 -32 13
-63 36 -32 23 -103 72 -158 110 -55 37 -124 84 -153 104 -29 20 -112 65 -185
100 -73 35 -152 76 -177 90 l-45 27 272 0 c229 -1 596 19 663 34 28 7 41 6 37
-1z"/>
<path d="M3301 6243 c-19 -10 -43 -34 -53 -53 -32 -62 -25 -95 61 -262 44 -84
87 -178 96 -208 26 -88 73 -452 80 -620 23 -574 63 -735 224 -898 228 -231
318 -308 491 -423 161 -107 387 -229 426 -229 35 0 83 33 99 67 14 29 15 43 6
73 -15 50 -42 72 -146 121 -135 63 -433 267 -497 339 -29 33 -92 95 -141 137
-193 168 -205 211 -237 858 -10 204 -48 495 -80 612 -24 89 -56 161 -120 273
-28 48 -50 97 -50 110 0 30 -26 83 -48 96 -35 22 -76 25 -111 7z"/>
<path d="M11055 5489 c-120 -12 -257 -42 -580 -127 -397 -104 -619 -168 -675
-197 -71 -36 -85 -61 -85 -161 0 -78 2 -85 29 -113 16 -17 41 -33 57 -36 42
-9 272 -151 377 -233 52 -39 164 -114 250 -166 87 -52 189 -120 227 -152 91
-73 145 -98 201 -91 87 9 128 63 218 285 25 62 64 145 85 185 40 72 137 297
161 372 7 22 23 56 35 75 62 100 71 181 27 232 -16 18 -34 48 -42 67 -28 69
-77 80 -285 60z m105 -229 c0 -6 -11 -32 -24 -58 -13 -26 -29 -65 -36 -87 -23
-74 -111 -276 -145 -333 -30 -53 -113 -237 -129 -290 -7 -22 -9 -21 -69 23
-34 25 -129 85 -212 134 -82 49 -190 121 -239 159 -49 39 -133 96 -187 129
-54 32 -99 60 -99 63 0 7 341 102 630 175 231 58 339 79 455 88 22 2 43 4 48
5 4 1 7 -3 7 -8z"/>
<path d="M8255 4473 c-226 -30 -779 -139 -1040 -204 -247 -62 -965 -368 -1415
-603 -140 -74 -302 -157 -360 -186 -148 -74 -226 -128 -308 -214 -99 -105
-110 -167 -42 -228 56 -51 111 -35 190 57 70 80 129 119 345 227 110 55 274
140 365 188 91 48 246 123 345 165 99 43 205 90 235 105 73 36 381 160 534
215 68 24 186 57 262 75 76 17 184 43 239 56 55 13 230 47 388 75 l288 50 26
-21 c40 -31 104 -27 144 8 27 24 33 37 36 83 9 116 -78 173 -232 152z"/>
<path d="M12360 4184 c-151 -23 -211 -47 -235 -94 -39 -76 8 -160 90 -160 13
0 52 7 86 16 63 16 180 15 379 -2 74 -7 120 11 139 52 22 50 8 112 -32 138
-51 34 -322 65 -427 50z"/>
<path d="M8240 4014 c-342 -58 -484 -90 -695 -155 -202 -62 -236 -75 -579
-219 -496 -207 -626 -281 -642 -367 -9 -50 17 -100 63 -119 47 -20 73 -13 155
42 79 53 155 88 413 194 105 43 237 99 295 124 180 81 466 168 690 211 74 15
175 34 224 44 81 16 93 16 131 2 36 -13 47 -13 75 -1 90 37 91 178 1 224 -32
17 -93 26 -131 20z"/>
<path d="M10690 3923 c-27 -10 -61 -47 -96 -104 -18 -31 -83 -104 -143 -162
-107 -103 -113 -107 -283 -191 -122 -60 -233 -106 -378 -154 -113 -38 -259
-92 -326 -120 -136 -58 -357 -116 -479 -127 -44 -3 -95 -11 -112 -16 -90 -28
-100 -155 -16 -198 82 -42 449 28 696 134 56 24 154 60 217 80 204 65 311 108
483 192 201 99 238 123 342 224 l81 78 42 -49 c89 -103 201 -153 487 -215 200
-43 329 -58 381 -43 69 19 105 83 79 143 -23 55 -47 68 -148 76 -82 7 -187 25
-333 59 -27 7 -92 26 -144 42 -77 25 -103 39 -136 72 -43 42 -64 93 -64 154 0
87 -78 151 -150 125z"/>
<path d="M8010 3543 c-47 -8 -200 -53 -341 -99 -232 -77 -284 -99 -535 -224
-354 -175 -404 -216 -374 -306 27 -81 101 -95 196 -38 177 108 546 275 782
355 242 81 348 104 445 94 68 -6 68 -6 102 28 30 30 35 42 35 80 0 50 -24 88
-70 112 -36 19 -127 18 -240 -2z"/>
<path d="M11980 3193 c-185 -64 -381 -159 -448 -218 -29 -26 -81 -84 -116
-128 -98 -124 -131 -152 -399 -331 -216 -144 -283 -183 -515 -297 -294 -144
-336 -160 -500 -195 -116 -25 -182 -29 -267 -15 -27 5 -62 4 -80 -1 -19 -5
-88 -5 -185 2 -283 20 -354 29 -490 64 -74 19 -234 53 -355 76 -259 48 -283
54 -525 126 -232 69 -1034 337 -1195 398 -66 26 -174 67 -240 93 -66 25 -178
75 -250 111 -263 131 -474 222 -516 222 -59 0 -99 -42 -99 -104 0 -64 38 -98
186 -165 65 -30 211 -98 324 -152 113 -53 246 -113 295 -132 220 -88 371 -143
510 -187 83 -27 269 -89 415 -139 378 -131 734 -231 995 -281 121 -23 288 -59
370 -80 83 -21 177 -43 210 -49 89 -16 374 -33 595 -36 171 -3 210 -1 315 20
221 43 264 61 764 309 110 54 599 375 669 438 23 21 80 84 126 141 47 57 101
116 121 131 34 27 194 105 265 131 123 44 160 78 160 147 0 70 -75 124 -140
101z"/>
<path d="M10844 2976 c-19 -9 -47 -37 -70 -73 -57 -86 -170 -195 -244 -236
-101 -56 -280 -122 -480 -177 l-183 -50 -268 0 c-147 0 -324 5 -394 11 -141
12 -181 5 -215 -38 -13 -17 -20 -40 -20 -67 1 -107 61 -120 603 -131 315 -6
318 -6 594 74 199 58 406 137 488 186 83 51 155 115 234 209 81 97 102 134
103 187 0 49 -24 87 -67 105 -41 17 -42 17 -81 0z"/>
</g>
</svg>
